<?xml version="1.0" encoding="utf-8"?><!DOCTYPE svg PUBLIC "-//W3C//DTD SVG 1.1//EN" "http://www.w3.org/Graphics/SVG/1.1/DTD/svg11.dtd"><svg version="1.1" xmlns="http://www.w3.org/2000/svg" xmlns:xlink="http://www.w3.org/1999/xlink" x="0px" y="0px" viewBox="0 0 100 81.425" enable-background="new 0 0 100 65.14" xml:space="preserve"><path fill="#010101" d="M73.719,59.976c-2.154,0-3.892-1.727-3.892-3.881c0-2.155,1.736-3.894,3.892-3.894
	c2.144,0,3.884,1.738,3.884,3.894C77.603,58.249,75.861,59.976,73.719,59.976 M82.675,56.095c0-4.96-3.999-8.965-8.958-8.965
	c-4.956,0-8.954,4.007-8.954,8.965c0,4.948,3.996,8.963,8.954,8.963C78.678,65.058,82.675,61.042,82.675,56.095"/><path fill="#010101" d="M45.22,60.058c-2.155,0-3.893-1.728-3.893-3.883s1.738-3.896,3.893-3.896
	c2.144,0,3.883,1.74,3.883,3.896C49.104,58.33,47.364,60.058,45.22,60.058 M54.177,56.175c0-4.958-3.998-8.967-8.957-8.967
	c-4.958,0-8.953,4.009-8.953,8.967c0,4.946,3.995,8.965,8.953,8.965C50.181,65.14,54.177,61.121,54.177,56.175"/><path fill="#010101" d="M87.166,0H24.297c-8.712,0-12.854,4.131-12.854,12.854l-0.021,38.285H3.208C1.433,51.139,0,53.589,0,55.363
	c0,0,14.082,0,19.94,0c1.538,0,2.517,0,2.517,0h10.358c0.407-6.523,5.782-11.688,12.407-11.688
	c6.625,0.001,12.003,5.167,12.406,11.714h2.11c0-0.009,0-0.019-0.002-0.025h1.631c0.405-6.523,5.78-11.688,12.405-11.688
	c6.626,0.001,12.003,5.167,12.407,11.714h5.106c6.432,0,8.693-2.275,8.693-8.694L100,12.854C100.001,4.131,95.876,0,87.166,0z
	 M54.547,12.715v8.41H48.98L33.948,7.803h15.685C52.705,7.803,54.547,9.641,54.547,12.715z M35.121,22.589
	c-0.342,0.078-0.698,0.115-1.062,0.115c-2.255,0-4.141-1.532-4.682-3.619l3.637-0.69L35.121,22.589z M24.122,31.548
	c-3.073,0-4.913-1.838-4.913-4.915V12.715c0-3.075,1.84-4.914,4.913-4.914h8.432l0.289,2.647l-6.86,4.573
	c-1.142,0.645-1.551,2.101-0.906,3.24c0.513,0.903,1.522,1.342,2.486,1.165l0.558-0.1c0.654,2.663,3.068,4.639,5.938,4.639
	c0.568,0,1.117-0.084,1.639-0.229l3.824,7.81h-15.4V31.548z"/><text x="0" y="80.14" fill="#000000" font-size="5px" font-weight="bold" font-family="'Helvetica Neue', Helvetica, Arial-Unicode, Arial, Sans-serif">Created by Luis Prado</text><text x="0" y="85.14" fill="#000000" font-size="5px" font-weight="bold" font-family="'Helvetica Neue', Helvetica, Arial-Unicode, Arial, Sans-serif">from the Noun Project</text></svg>